<svg id="Layer_1" data-name="Layer 1" xmlns="http://www.w3.org/2000/svg" viewBox="0 0 260.45 60.57"><defs><style>.cls-1{fill:#0180b4;}.cls-2{fill:#fefefe;}.cls-3{fill:#0080b3;}</style></defs><title>pcs_25_bold-fitted</title><path class="cls-1" d="M.09,0h260c.27,0,.33.06.33.33q0,30.08,0,60.16H.53c-.36,0-.45-.08-.45-.45Q.1,30,.09,0ZM192.51,2.28H127.32c-.49,0-.49,0-.49.48v55a2.08,2.08,0,0,1,0,.25c0,.18.07.24.23.23H257.85c.25,0,.35-.06.32-.32a1.31,1.31,0,0,1,0-.28V2.89a1.4,1.4,0,0,1,0-.29c0-.25-.07-.35-.32-.32s-.22,0-.33,0ZM39.92,26.88c-.09-.18-.15-.3-.2-.42q-2.25-4.53-4.51-9.07c-.12-.25-.09-.35.17-.45a5.37,5.37,0,0,0,3.28-3.5,7.16,7.16,0,0,0,.16-3.38A6,6,0,0,0,35.36,5.3a8.61,8.61,0,0,0-3.75-.74H23c-.27,0-.34.08-.34.34q0,10.83,0,21.67c0,.28.1.33.35.33,1.35,0,2.69,0,4,0,.35,0,.41-.11.4-.42,0-2.69,0-5.38,0-8.06,0-.26,0-.36.33-.35.78,0,1.56,0,2.34,0a.54.54,0,0,1,.58.38c1.24,2.71,2.5,5.41,3.74,8.12a.47.47,0,0,0,.51.33c1.53,0,3.07,0,4.61,0Zm74-10,.21.4q2.43,4.65,4.85,9.3a.5.5,0,0,0,.52.32c1.54,0,3.07,0,4.61,0a.63.63,0,0,0,.37-.05c-.07-.12-.13-.25-.2-.38q-3.45-6.54-6.93-13.08a.46.46,0,0,1,.05-.59q3-3.93,5.95-7.87a.6.6,0,0,0,.19-.35h-5.12a.64.64,0,0,0-.57.28Q114.76,9,111.6,13.12c-.07.09-.12.22-.28.27v-.24c0-2.75,0-5.49,0-8.24,0-.29-.08-.36-.37-.36h-4.1c-.28,0-.36.07-.36.36q0,10.81,0,21.63c0,.26,0,.35.33.35q2.07,0,4.14,0c.3,0,.36-.1.35-.37,0-2,0-4,0-6a.62.62,0,0,1,.07-.42Zm-48.1-3.45v-.3c0-2.74,0-5.47,0-8.21,0-.28-.08-.36-.36-.36H61.39c-.27,0-.33.07-.33.34V26.56c0,.29.09.33.34.33q2.06,0,4.11,0c.29,0,.35-.1.35-.37q0-3,0-6A.8.8,0,0,1,66,20c.75-.93,1.49-1.85,2.21-2.8.2-.26.28-.26.43,0l4.87,9.38a.5.5,0,0,0,.52.31c1.54,0,3.07,0,4.61,0a.61.61,0,0,0,.35,0,.86.86,0,0,0-.16-.35q-3.45-6.55-6.93-13.09a.53.53,0,0,1,0-.66c2-2.58,3.93-5.18,5.89-7.77l.3-.41h-.43c-1.55,0-3.09,0-4.64,0a.81.81,0,0,0-.75.36Q69.3,9,66.2,13.05A1,1,0,0,1,65.85,13.42ZM56.64,26.88h2.12c.26,0,.34,0,.25-.31-.31-1-.59-2.07-.89-3.11q-2.64-9.27-5.27-18.55c-.08-.31-.22-.38-.51-.38H47.41c-.23,0-.33,0-.4.29Q43.89,15.7,40.73,26.56c-.07.26,0,.33.25.33,1.39,0,2.78,0,4.17,0,.24,0,.32-.09.38-.31.37-1.36.76-2.72,1.12-4.09A.32.32,0,0,1,47,22.2c1.9,0,3.79,0,5.69,0a.37.37,0,0,1,.43.34c.33,1.34.68,2.67,1,4a.38.38,0,0,0,.45.35C55.29,26.86,56,26.88,56.64,26.88ZM4,15.73q0,5.4,0,10.8c0,.28.07.36.36.36,1.34,0,2.68,0,4,0,.32,0,.42-.07.42-.41,0-2.63,0-5.25,0-7.88,0-.47,0-.47.45-.47h3.06a11.8,11.8,0,0,0,3.24-.41A6,6,0,0,0,19.87,14a7.82,7.82,0,0,0,.37-3.65,5.81,5.81,0,0,0-4-5.19,10.83,10.83,0,0,0-3.7-.6c-2.72,0-5.43,0-8.14,0-.31,0-.37.1-.37.38Q4,10.33,4,15.73Zm57.43,32.7h-.08l-.18-.29q-4.29-7.42-8.58-14.85a.55.55,0,0,0-.56-.32c-.59,0-1.18,0-1.76,0-.35,0-.47.06-.46.44,0,2,0,4.08,0,6.12q0,7.49,0,15c0,.27.06.37.35.36.7,0,1.39,0,2.09,0,.33,0,.41-.08.41-.41,0-4.95,0-9.89,0-14.83v-.41a.86.86,0,0,1,.27.31q4.34,7.51,8.69,15a.52.52,0,0,0,.53.31c.59,0,1.2,0,1.79,0,.27,0,.34-.07.34-.34,0-1.76,0-3.53,0-5.29q0-7.95,0-15.91c0-.27-.06-.37-.35-.36-.68,0-1.37,0-2,0-.36,0-.46.07-.46.44q0,7.29,0,14.58Zm57.66-1a5.15,5.15,0,0,0,1.33-.83,14.81,14.81,0,0,0,1.15-1.09,7.42,7.42,0,0,0,.79-9.11,7.15,7.15,0,0,0-6-3.38c-1.75,0-3.5,0-5.25,0-.33,0-.39.1-.38.4V50.15c0,1.47,0,2.93,0,4.39,0,.28.08.34.34.34.71,0,1.42,0,2.13,0,.29,0,.37-.07.37-.37,0-2.1,0-4.2,0-6.3,0-.27.07-.35.34-.34.63,0,1.27,0,1.9,0a.53.53,0,0,1,.55.3c1.33,2.15,2.68,4.29,4,6.44a.5.5,0,0,0,.48.27c.94,0,1.87,0,2.81,0,.08,0,.19.05.27-.07ZM85,17.79c0,2.88,0,5.76,0,8.64,0,.34,0,.47.43.46,1.32,0,2.64,0,4,0,.34,0,.39-.1.39-.4q0-8.65,0-17.32c0-.5,0-.5.52-.5h4.82c.24,0,.34,0,.34-.31,0-1.16,0-2.32,0-3.49,0-.25-.07-.32-.33-.32H79.71c-.27,0-.34.08-.34.34q0,1.71,0,3.42c0,.28.07.37.36.37,1.65,0,3.29,0,4.93,0,.31,0,.38.09.38.39C85,12,85,14.88,85,17.79ZM30.2,43.89V54.51c0,.18-.06.37.26.37q5.64,0,11.27,0c.25,0,.27-.1.27-.3,0-.73,0-1.46,0-2.19,0-.32-.09-.38-.38-.37H33.41c-.3,0-.38-.08-.38-.38,0-2,0-3.93,0-5.9,0-.33.09-.42.42-.41h8.2c.26,0,.36-.05.35-.33,0-.71,0-1.42,0-2.13,0-.32-.08-.39-.4-.39H33.54c-.5,0-.5,0-.5-.48V36.4c0-.58,0-.58.56-.58h8c.3,0,.38-.08.37-.38,0-.69,0-1.39,0-2.09,0-.34-.1-.38-.4-.38-3.67,0-7.35,0-11,0-.32,0-.39.09-.39.4C30.2,36.88,30.2,40.39,30.2,43.89ZM91.09,44c0,3.52,0,7,0,10.58,0,.2,0,.35.28.35q5.63,0,11.23,0c.23,0,.29-.07.29-.29,0-.72,0-1.44,0-2.16,0-.33-.09-.42-.42-.42-2.72,0-5.44,0-8.17,0-.32,0-.39-.09-.39-.4,0-2,0-3.91,0-5.87,0-.36.1-.43.44-.43,2.72,0,5.45,0,8.17,0,.27,0,.38-.06.37-.36,0-.7,0-1.41,0-2.12,0-.31-.1-.37-.39-.37H94.37c-.35,0-.47-.06-.46-.44,0-1.92,0-3.84,0-5.76,0-.53-.08-.49.47-.49h8.13c.28,0,.38-.07.37-.36,0-.67,0-1.34,0-2s.05-.47-.45-.47H91.56c-.36,0-.48.07-.48.46C91.1,36.94,91.09,40.44,91.09,44Zm-77-11.2a9.83,9.83,0,0,0-3.63.68A11.2,11.2,0,0,0,6.08,51.37a10.85,10.85,0,0,0,9.23,3.69,12.08,12.08,0,0,0,7.17-3.35c.12-.11.15-.17,0-.3-.6-.53-1.2-1.06-1.79-1.61-.15-.13-.23-.09-.36,0s-.52.43-.79.63A8.3,8.3,0,1,1,15.9,35.76,9.67,9.67,0,0,1,20.27,38c.18.16.3.2.5,0,.54-.52,1.1-1,1.67-1.53.21-.17.15-.26,0-.4-.41-.31-.79-.66-1.21-1A11.45,11.45,0,0,0,14.13,32.75Zm84.24-17c0,3.61,0,7.23,0,10.84,0,.25,0,.35.33.35q2.07,0,4.14,0c.25,0,.35-.05.35-.34q0-10.83,0-21.67c0-.28-.1-.33-.35-.33-1.36,0-2.72,0-4.07,0-.31,0-.4.06-.4.39C98.37,8.53,98.37,12.11,98.37,15.7ZM76.26,45.33c0,3.07,0,6.14,0,9.21,0,.26,0,.35.33.34.68,0,1.37,0,2,0,.37,0,.47-.08.47-.46q0-9.08,0-18.14c0-.46,0-.46.47-.46h4.32c.21,0,.32,0,.31-.29,0-.76,0-1.51,0-2.27,0-.21,0-.29-.28-.29q-6.24,0-12.48,0c-.22,0-.29.06-.29.28,0,.75,0,1.49,0,2.23,0,.29.09.34.35.34h4.35c.32,0,.42.06.42.4C76.26,39.26,76.26,42.29,76.26,45.33Z"/><path class="cls-2" d="M.09,0q0,30,0,60c0,.37.09.45.45.45H260.44s0,.07,0,.07H.34c-.27,0-.33-.07-.33-.34Q0,30.29,0,.33C0,.23-.06.09.09,0Z"/><path class="cls-2" d="M192.51,2.28h65c.11,0,.22,0,.33,0s.35.07.32.32a1.4,1.4,0,0,0,0,.29V57.61a1.31,1.31,0,0,0,0,.28c0,.26-.07.36-.32.32H127.06c-.16,0-.24-.05-.23-.23a2.08,2.08,0,0,0,0-.25v-55c0-.48,0-.48.49-.48Zm21.73,27.93q0,12.8,0,25.6c0,.37.11.44.46.44h16.88a30.73,30.73,0,0,0,7.52-.87A19.84,19.84,0,0,0,252.4,44.81a28,28,0,0,0,2.71-10.62A45.26,45.26,0,0,0,255,25.1a29.71,29.71,0,0,0-2.1-8.34,19.07,19.07,0,0,0-9.23-10,25.05,25.05,0,0,0-11-2.56c-6-.06-12,0-18,0-.53,0-.47-.06-.47.45ZM148.16,3.46a23.85,23.85,0,0,0-3.16.21A17.63,17.63,0,0,0,136.6,7a13.4,13.4,0,0,0-4.85,6.33,14.42,14.42,0,0,0-.55,7,11.59,11.59,0,0,0,4.63,7.84,39.23,39.23,0,0,0,7.49,4.24c2.13,1,4.35,1.71,6.48,2.66A26,26,0,0,1,155,38a4.88,4.88,0,0,1,2.06,4.32,5.07,5.07,0,0,1-3.62,4.92,13,13,0,0,1-4,.61,9.79,9.79,0,0,1-8.22-3.7A19.28,19.28,0,0,1,138.79,40c-.12-.24-.2-.28-.45-.17L130,43.49c-.68.3-.68.29-.39,1a18.88,18.88,0,0,0,8.74,9.67,23.64,23.64,0,0,0,8.58,2.7,27.91,27.91,0,0,0,5.78-.08,21.71,21.71,0,0,0,6.19-1.54,13.34,13.34,0,0,0,7.82-8.09,18.11,18.11,0,0,0,.83-8.2A12,12,0,0,0,163,30.47a35.18,35.18,0,0,0-9.25-5.26,73,73,0,0,1-7.28-3,17.36,17.36,0,0,1-3.51-2.1,3.91,3.91,0,0,1-.93-4.81,4.36,4.36,0,0,1,2.58-2.16,10.81,10.81,0,0,1,4.75-.56,7.08,7.08,0,0,1,4.77,2.46A14.78,14.78,0,0,1,156.55,19c.11.27.23.33.5.23.66-.22,1.33-.41,2-.61,2.53-.78,5-1.56,7.59-2.32.33-.1.34-.21.2-.48-.34-.67-.65-1.36-1-2a18,18,0,0,0-5.69-6.66A20.59,20.59,0,0,0,148.16,3.46Zm41.91,19.47a.7.7,0,0,1-.19-.33L182,4.52a.5.5,0,0,0-.55-.36H170.53c-.43,0-.43,0-.25.4q7,15.35,14.08,30.69a1.61,1.61,0,0,1,.16.72c0,6.61,0,13.22,0,19.84,0,.37.1.44.45.44h10.26c.34,0,.44-.06.43-.42,0-6.68,0-13.37,0-20a1.83,1.83,0,0,1,.17-.76q7-15.21,14-30.42a.8.8,0,0,0,.15-.44H198.62a.5.5,0,0,0-.55.37q-3.18,7.36-6.39,14.72Z"/><path class="cls-2" d="M39.92,26.88h-.37c-1.54,0-3.08,0-4.61,0a.47.47,0,0,1-.51-.33c-1.24-2.71-2.5-5.41-3.74-8.12a.54.54,0,0,0-.58-.38c-.78,0-1.56,0-2.34,0-.28,0-.33.09-.33.35,0,2.68,0,5.37,0,8.06,0,.31-.05.43-.4.42-1.34,0-2.68,0-4,0-.25,0-.35-.05-.35-.33q0-10.83,0-21.67c0-.26.07-.34.34-.34h8.6a8.61,8.61,0,0,1,3.75.74,6,6,0,0,1,3.46,4.76,7.16,7.16,0,0,1-.16,3.38,5.37,5.37,0,0,1-3.28,3.5c-.26.1-.29.2-.17.45q2.26,4.53,4.51,9.07C39.77,26.58,39.83,26.7,39.92,26.88ZM27.45,11.32v2.44c0,.14-.05.29.19.29,1.37-.05,2.73.1,4.09-.08a2.37,2.37,0,0,0,2.36-2.67A2.46,2.46,0,0,0,31.7,8.65c-1.34-.14-2.69,0-4-.07-.21,0-.23.09-.23.26C27.45,9.66,27.45,10.49,27.45,11.32Z"/><path class="cls-2" d="M114,16.87l-2.56,3.22a.62.62,0,0,0-.07.42c0,2,0,4,0,6,0,.27,0,.37-.35.37q-2.07,0-4.14,0c-.28,0-.33-.09-.33-.35q0-10.82,0-21.63c0-.29.08-.36.36-.36H111c.29,0,.37.07.37.36,0,2.75,0,5.49,0,8.24v.24c.16-.05.21-.18.28-.27q3.15-4.14,6.28-8.29a.64.64,0,0,1,.57-.28h5.12a.6.6,0,0,1-.19.35q-3,3.95-5.95,7.87a.46.46,0,0,0-.05.59q3.48,6.54,6.93,13.08c.07.13.13.26.2.38a.63.63,0,0,1-.37.05c-1.54,0-3.07,0-4.61,0a.5.5,0,0,1-.52-.32q-2.42-4.65-4.85-9.3Z"/><path class="cls-2" d="M65.85,13.42a1,1,0,0,0,.35-.37Q69.29,9,72.36,4.91a.81.81,0,0,1,.75-.36c1.55,0,3.09,0,4.64,0h.43l-.3.41c-2,2.59-3.92,5.19-5.89,7.77a.53.53,0,0,0,0,.66q3.48,6.54,6.93,13.09a.86.86,0,0,1,.16.35.61.61,0,0,1-.35,0c-1.54,0-3.07,0-4.61,0a.5.5,0,0,1-.52-.31L68.68,17.2c-.15-.3-.23-.3-.43,0C67.53,18.11,66.79,19,66,20a.8.8,0,0,0-.19.55q0,3,0,6c0,.27-.06.37-.35.37q-2.06,0-4.11,0c-.25,0-.35,0-.34-.33V4.89c0-.27.06-.34.33-.34H65.5c.28,0,.36.08.36.36,0,2.74,0,5.47,0,8.21Z"/><path class="cls-2" d="M56.64,26.88c-.67,0-1.35,0-2,0a.38.38,0,0,1-.45-.35c-.33-1.34-.68-2.67-1-4a.37.37,0,0,0-.43-.34c-1.9,0-3.79,0-5.69,0a.32.32,0,0,0-.39.29c-.36,1.37-.75,2.73-1.12,4.09-.06.22-.14.31-.38.31-1.39,0-2.78,0-4.17,0-.28,0-.32-.07-.25-.33Q43.88,15.68,47,4.82c.07-.24.17-.29.4-.29h4.93c.29,0,.43.07.51.38q2.63,9.27,5.27,18.55c.3,1,.58,2.08.89,3.11.09.28,0,.32-.25.31ZM50,10.31l-.08.08c-.68,2.5-1.35,5-2,7.48-.08.29.06.26.24.26h3.56c.3,0,.33-.07.26-.34-.51-1.91-1-3.82-1.49-5.73C50.31,11.49,50.16,10.91,50,10.31Z"/><path class="cls-2" d="M4,15.73q0-5.4,0-10.8c0-.28.06-.38.37-.38,2.71,0,5.42,0,8.14,0a10.83,10.83,0,0,1,3.7.6,5.81,5.81,0,0,1,4,5.19A7.82,7.82,0,0,1,19.87,14a6,6,0,0,1-4.29,3.7,11.8,11.8,0,0,1-3.24.41H9.28c-.45,0-.45,0-.45.47,0,2.63,0,5.25,0,7.88,0,.34-.1.41-.42.41-1.35,0-2.69,0-4,0-.29,0-.36-.08-.36-.36Q4,21.13,4,15.73Zm4.79-4.4v2.48c0,.16,0,.31.23.3,1.31,0,2.63.06,3.95-.07a2.43,2.43,0,0,0,2.45-2.56,2.34,2.34,0,0,0-1.93-2.73c-.21-.05-.42-.08-.64-.11-1.26-.12-2.53,0-3.8-.06-.22,0-.27.07-.26.27Z"/><path class="cls-2" d="M61.47,48.43V48q0-7.29,0-14.58c0-.37.1-.46.46-.44.68,0,1.37,0,2,0,.29,0,.35.09.35.36q0,7.95,0,15.91c0,1.76,0,3.53,0,5.29,0,.27-.07.35-.34.34-.59,0-1.2,0-1.79,0a.52.52,0,0,1-.53-.31Q57.31,47,53,39.54a.86.86,0,0,0-.27-.31v.41c0,4.94,0,9.88,0,14.83,0,.33-.08.42-.41.41-.7,0-1.39,0-2.09,0-.29,0-.35-.09-.35-.36q0-7.5,0-15c0-2,0-4.08,0-6.12,0-.38.11-.46.46-.44.58,0,1.17,0,1.76,0a.55.55,0,0,1,.56.32q4.27,7.43,8.58,14.85l.18.29Z"/><path class="cls-2" d="M119.13,47.41l4.8,7.39c-.08.12-.19.07-.27.07-.94,0-1.87,0-2.81,0a.5.5,0,0,1-.48-.27c-1.33-2.15-2.68-4.29-4-6.44a.53.53,0,0,0-.55-.3c-.63,0-1.27,0-1.9,0-.27,0-.34.07-.34.34,0,2.1,0,4.2,0,6.3,0,.3-.08.38-.37.37-.71,0-1.42,0-2.13,0-.26,0-.34-.06-.34-.34,0-1.46,0-2.92,0-4.39V33.38c0-.3,0-.4.38-.4,1.75,0,3.5,0,5.25,0a7.15,7.15,0,0,1,6,3.38,7.42,7.42,0,0,1-.79,9.11,14.81,14.81,0,0,1-1.15,1.09A5.15,5.15,0,0,1,119.13,47.41Zm-5.56-7c0,1.43,0,2.85,0,4.28,0,.25.06.33.32.33.82,0,1.65,0,2.48,0a4.59,4.59,0,0,0,.71-9.08,23.83,23.83,0,0,0-3.16-.09c-.31,0-.35.1-.35.37C113.58,37.61,113.57,39,113.57,40.42Z"/><path class="cls-2" d="M85,17.79c0-2.91,0-5.83,0-8.74,0-.3-.07-.39-.38-.39-1.64,0-3.28,0-4.93,0-.29,0-.36-.09-.36-.37q0-1.71,0-3.42c0-.26.07-.34.34-.34H95.15c.26,0,.33.07.33.32,0,1.17,0,2.33,0,3.49,0,.27-.1.32-.34.31H90.32c-.52,0-.52,0-.52.5q0,8.67,0,17.32c0,.3,0,.41-.39.4-1.32,0-2.64,0-4,0-.38,0-.44-.12-.43-.46C85,23.55,85,20.67,85,17.79Z"/><path class="cls-2" d="M30.2,43.89c0-3.5,0-7,0-10.51,0-.31.07-.4.39-.4,3.67,0,7.35,0,11,0,.3,0,.42,0,.4.38,0,.7,0,1.4,0,2.09,0,.3-.07.38-.37.38h-8c-.56,0-.56,0-.56.58V42c0,.48,0,.48.5.48H41.6c.32,0,.41.07.4.39,0,.71,0,1.42,0,2.13,0,.28-.09.33-.35.33h-8.2c-.33,0-.42.08-.42.41,0,2,0,3.93,0,5.9,0,.3.08.38.38.38h8.21c.29,0,.39,0,.38.37,0,.73,0,1.46,0,2.19,0,.2,0,.3-.27.3q-5.62,0-11.27,0c-.32,0-.26-.19-.26-.37Z"/><path class="cls-2" d="M91.09,44c0-3.51,0-7,0-10.51,0-.39.12-.46.48-.46h10.87c.5,0,.45-.08.45.47s0,1.34,0,2c0,.29-.09.36-.37.36H94.39c-.55,0-.47,0-.47.49,0,1.92,0,3.84,0,5.76,0,.38.11.44.46.44h8.13c.29,0,.4.06.39.37,0,.71,0,1.42,0,2.12,0,.3-.1.36-.37.36-2.72,0-5.45,0-8.17,0-.34,0-.45.07-.44.43,0,2,0,3.91,0,5.87,0,.31.07.4.39.4,2.73,0,5.45,0,8.17,0,.33,0,.43.09.42.42,0,.72,0,1.44,0,2.16,0,.22-.06.29-.29.29q-5.61,0-11.23,0c-.3,0-.28-.15-.28-.35C91.1,51,91.09,47.47,91.09,44Z"/><path class="cls-2" d="M14.13,32.75a11.45,11.45,0,0,1,7.08,2.37c.42.3.8.65,1.21,1,.17.14.23.23,0,.4-.57.5-1.13,1-1.67,1.53-.2.19-.32.15-.5,0a9.67,9.67,0,0,0-4.37-2.24,8.32,8.32,0,1,0,3.65,14.69c.27-.2.54-.41.79-.63s.21-.15.36,0c.59.55,1.19,1.08,1.79,1.61.14.13.11.19,0,.3a12.08,12.08,0,0,1-7.17,3.35,10.85,10.85,0,0,1-9.23-3.69A11.2,11.2,0,0,1,10.5,33.43,9.83,9.83,0,0,1,14.13,32.75Z"/><path class="cls-2" d="M98.37,15.7c0-3.59,0-7.17,0-10.76,0-.33.09-.4.4-.39,1.35,0,2.71,0,4.07,0,.25,0,.35,0,.35.33q0,10.85,0,21.67c0,.29-.1.34-.35.34q-2.07,0-4.14,0c-.29,0-.33-.1-.33-.35C98.37,22.93,98.37,19.31,98.37,15.7Z"/><path class="cls-2" d="M76.26,45.33c0-3,0-6.07,0-9.11,0-.34-.1-.41-.42-.4H71.5c-.26,0-.36,0-.35-.34,0-.74,0-1.48,0-2.23,0-.22.07-.28.29-.28q6.24,0,12.48,0c.23,0,.29.08.28.29,0,.76,0,1.51,0,2.27,0,.26-.1.29-.31.29H79.57c-.47,0-.47,0-.47.46q0,9.07,0,18.14c0,.38-.1.48-.47.46-.68,0-1.37,0-2,0-.28,0-.33-.08-.33-.34C76.27,51.47,76.26,48.4,76.26,45.33Z"/><path class="cls-3" d="M214.24,30.21V4.62c0-.51-.06-.45.47-.45,6,0,12,0,18,0a25.05,25.05,0,0,1,11,2.56,19.07,19.07,0,0,1,9.23,10A29.71,29.71,0,0,1,255,25.1a45.26,45.26,0,0,1,.14,9.09,28,28,0,0,1-2.71,10.62,19.84,19.84,0,0,1-13.31,10.56,30.73,30.73,0,0,1-7.52.87H214.69c-.35,0-.46-.07-.46-.44Q214.25,43,214.24,30.21Zm11.21,0q0,8,0,16c0,.32.08.39.39.39,1.73,0,3.46,0,5.19,0a18.83,18.83,0,0,0,3.51-.29,10.05,10.05,0,0,0,7-4.79,16.13,16.13,0,0,0,2.12-6.43,35.82,35.82,0,0,0,.14-8.47,20.85,20.85,0,0,0-1.59-6.36,10.17,10.17,0,0,0-3.92-4.7,12.31,12.31,0,0,0-6.42-1.71c-2,0-4,0-6,0-.31,0-.39.06-.39.39Q225.46,22.19,225.45,30.19Z"/><path class="cls-3" d="M148.16,3.46a20.59,20.59,0,0,1,12,3.62,18,18,0,0,1,5.69,6.66c.35.67.66,1.36,1,2,.14.27.13.38-.2.48-2.54.76-5.06,1.54-7.59,2.32-.67.2-1.34.39-2,.61-.27.1-.39,0-.5-.23a14.78,14.78,0,0,0-2.44-3.87,7.08,7.08,0,0,0-4.77-2.46,10.81,10.81,0,0,0-4.75.56A4.36,4.36,0,0,0,142,15.34a3.91,3.91,0,0,0,.93,4.81,17.36,17.36,0,0,0,3.51,2.1,73,73,0,0,0,7.28,3A35.18,35.18,0,0,1,163,30.47a12,12,0,0,1,4.58,8.45,18.11,18.11,0,0,1-.83,8.2,13.34,13.34,0,0,1-7.82,8.09,21.71,21.71,0,0,1-6.19,1.54,27.91,27.91,0,0,1-5.78.08,23.64,23.64,0,0,1-8.58-2.7,18.88,18.88,0,0,1-8.74-9.67c-.29-.68-.29-.67.39-1l8.33-3.64c.25-.11.33-.07.45.17a19.28,19.28,0,0,0,2.46,4.12,9.79,9.79,0,0,0,8.22,3.7,13,13,0,0,0,4-.61,5.07,5.07,0,0,0,3.62-4.92A4.88,4.88,0,0,0,155,38a26,26,0,0,0-5.19-2.92c-2.13-1-4.35-1.69-6.48-2.66a39.23,39.23,0,0,1-7.49-4.24,11.59,11.59,0,0,1-4.63-7.84,14.42,14.42,0,0,1,.55-7A13.4,13.4,0,0,1,136.6,7,17.63,17.63,0,0,1,145,3.67,23.85,23.85,0,0,1,148.16,3.46Z"/><path class="cls-3" d="M190.07,22.93l1.61-3.68q3.19-7.36,6.39-14.72a.5.5,0,0,1,.55-.37h11.32a.8.8,0,0,1-.15.44q-7,15.21-14,30.42a1.83,1.83,0,0,0-.17.76c0,6.68,0,13.37,0,20,0,.36-.09.42-.43.42H185c-.35,0-.45-.07-.45-.44,0-6.62,0-13.23,0-19.84a1.61,1.61,0,0,0-.16-.72q-7.05-15.34-14.08-30.69c-.18-.39-.18-.4.25-.4h10.94a.5.5,0,0,1,.55.36l7.86,18.08A.7.7,0,0,0,190.07,22.93Z"/><path class="cls-1" d="M27.45,11.32c0-.83,0-1.66,0-2.48,0-.17,0-.27.23-.26,1.34,0,2.69-.07,4,.07a2.46,2.46,0,0,1,2.39,2.65A2.37,2.37,0,0,1,31.73,14c-1.36.18-2.72,0-4.09.08-.24,0-.19-.15-.19-.29Z"/><path class="cls-1" d="M50,10.31c.16.6.31,1.18.45,1.75.5,1.91,1,3.82,1.49,5.73.07.27,0,.35-.26.34H48.12c-.18,0-.32,0-.24-.26.69-2.49,1.36-5,2-7.48Z"/><path class="cls-1" d="M8.83,11.33V8.85c0-.2,0-.28.26-.27,1.27,0,2.54-.06,3.8.06.22,0,.43.06.64.11a2.34,2.34,0,0,1,1.93,2.73A2.43,2.43,0,0,1,13,14c-1.32.13-2.64,0-3.95.07-.25,0-.23-.14-.23-.3Z"/><path class="cls-1" d="M113.57,40.42c0-1.4,0-2.81,0-4.21,0-.27,0-.39.35-.37a23.83,23.83,0,0,1,3.16.09,4.59,4.59,0,0,1-.71,9.08c-.83,0-1.66,0-2.48,0-.26,0-.32-.08-.32-.33C113.58,43.27,113.57,41.85,113.57,40.42Z"/><path class="cls-2" d="M225.45,30.19q0-8,0-16c0-.33.08-.4.39-.39,2,0,4,0,6,0a12.31,12.31,0,0,1,6.42,1.71,10.17,10.17,0,0,1,3.92,4.7,20.85,20.85,0,0,1,1.59,6.36,35.82,35.82,0,0,1-.14,8.47,16.13,16.13,0,0,1-2.12,6.43,10.05,10.05,0,0,1-7,4.79,18.83,18.83,0,0,1-3.51.29c-1.73,0-3.46,0-5.19,0-.31,0-.39-.07-.39-.39Q225.46,38.2,225.45,30.19Z"/></svg>